<svg id="Calque_1" data-name="Calque 1" xmlns="http://www.w3.org/2000/svg" viewBox="0 0 2463.22 445.75"><defs><style>.cls-1{fill:#cc2229;fill-rule:evenodd;}</style></defs><title>logo</title><path class="cls-1" d="M1105,1026.36H934.28l38.79,40.48V1296.9L767.29,1026.36H617.52L655,1066.84v349.83l-37.44,40.15H787.87s-37.79-40.48-38.8-40.48,0-242.89,0-242.89l224,283.37H1105l-37.44-40.15V1066.84l37.44-40.48Zm463.15,214.21H1398.79l37.44,37.78v64.76c-24.29,22.27-57.35,38.79-91.75,38.79-77.23,3-130.21-66.12-132.91-138,1-69.83,60-137.63,132.91-138,55.66,6.07,89.73,8.43,151.13,53.63V1026.36l-27.33,28.34c-36.43-24.29-78.25-32.05-123.11-32.72-125.16-1-225.35,97.15-228.38,225-3,128.2,102.55,220.29,228.38,220.29,73.19,0,143-22.27,185.2-79.62L1531,1278l35.08-35.42,2-2Zm-1015-173.39L590.53,1027l-171-.34,39.15,40.49.32,349.48-38.79,40.15H590.86c-12.81-13.83-26.31-27-38.79-40.82ZM348.65,1229.44c-47.56-30-81.63-21.59-157.19-38.45-51-11.47-80-57.35-11.13-85,44.86-15.86,150.11,13.83,196,39.47l.33-123.12L349,1039.19c-38.79-12.14-82-16.19-126.17-17.55-70.5-1.68-115.36,14.85-148.42,40.82q-49.59,42.51-51.61,89v6.76c1,20.9,8.77,42.16,23.61,64.09C85.2,1261.15,114.55,1276,174.6,1278c59.37,2,98.84,10.46,113.68,52.63-7.76,42.84-42.84,60.72-104.58,52.63-47.22-3-99.16-32-157.19-75.91l-1,148.77,37.11-27.32c34.4,17.2,71.51,31,113.68,37.45,54.65,3.38,106.59-6.75,155.52-35.42,65.09-46.58,77.23-145.08,16.84-201.42ZM2486,1052.34l-25-2.7-10.46-23.28-10.46,23.28-5.39.66-19.92,2.38,18.89,16.86-5.72,24.63,6.75-3.71,15.85-8.78,21.58,12.83-5.06-25,18.9-17.2Zm-81.3,367.37L2315.32,1300c62.41-21.59,86.69-52.62,89.4-129.88-2-103.23-49.59-128.87-131.9-143.71H1982l39.47,38.12-.33,352.18L1982,1456.8h169.35l-36.1-40.14c-1,0,0-116.73,0-116.73h76.25l18.55,24,74.55,94.79-25,37.11,175.07,1h19.91L2434.75,1442l-30-22.24Zm-157.86-198.37H2115.28V1120.13h135.27C2319.38,1121.5,2328.15,1219.66,2246.86,1221.34Z" transform="translate(-22.8 -1021.52)"/><path class="cls-1" d="M1564.08,1026.36s.68,1,2,2.7c7.78,8.77,35.77,37.78,35.77,37.78v349.83l-35.77,38.11-2,2h379.15V1337.05l-39.11,25H1695.64v-74.21l173.39-.69,35.09,27v-146.4l-29.37,25.64H1695.63v-73.2H1904.1l39.12,29v-122.8Z" transform="translate(-22.8 -1021.52)"/></svg>